<svg width="54" height="54" viewBox="0 0 54 54" fill="none" xmlns="http://www.w3.org/2000/svg">
<path d="M48.9375 8.4375H5.0625C4.1291 8.4375 3.375 9.1916 3.375 10.125V43.875C3.375 44.8084 4.1291 45.5625 5.0625 45.5625H48.9375C49.8709 45.5625 50.625 44.8084 50.625 43.875V10.125C50.625 9.1916 49.8709 8.4375 48.9375 8.4375ZM46.8281 14.2805V41.7656H7.17188V14.2805L5.71641 13.1467L7.78887 10.4836L10.0459 12.2396H43.9594L46.2164 10.4836L48.2889 13.1467L46.8281 14.2805V14.2805ZM43.9594 12.2344L27 25.418L10.0406 12.2344L7.78359 10.4783L5.71113 13.1414L7.1666 14.2752L25.1807 28.2814C25.6987 28.6839 26.3361 28.9024 26.9921 28.9024C27.6481 28.9024 28.2855 28.6839 28.8035 28.2814L46.8281 14.2805L48.2836 13.1467L46.2111 10.4836L43.9594 12.2344Z" fill="#FF9A00"/>
</svg>
