<?xml version="1.0" encoding="UTF-8"?>
<svg width="26px" height="26px" viewBox="0 0 26 26" version="1.1" xmlns="http://www.w3.org/2000/svg" xmlns:xlink="http://www.w3.org/1999/xlink">
    <!-- Generator: Sketch 39.1 (31720) - http://www.bohemiancoding.com/sketch -->
    <title>User round 2</title>
    <desc>Created with Sketch.</desc>
    <defs></defs>
    <g id="user-dashboard" stroke="none" stroke-width="1" fill="none" fill-rule="evenodd">
        <g id="Desktop-Landscape" transform="translate(-1008.000000, -19.000000)" fill="#4A4A4A">
            <path d="M1020.99653,19 C1013.8292,19 1008,24.8300667 1008,31.9948 C1008,34.5696667 1008.75487,37.0648 1010.1866,39.2072 C1012.60893,42.8281333 1016.64933,44.9896 1020.99653,44.9896 C1025.34373,44.9896 1029.38587,42.8281333 1031.80647,39.2054667 C1033.23473,37.0691333 1033.99047,34.574 1033.99047,31.9948 C1033.9896,24.8300667 1028.16213,19 1020.99653,19 L1020.99653,19 Z M1020.99653,19.9308 C1027.64733,19.9308 1033.05707,25.3422667 1033.05707,31.9948 C1033.05707,34.1736 1032.47813,36.2856667 1031.37487,38.1412 C1031.33413,38.0935333 1031.2804,38.0614667 1031.2414,38.0155333 C1030.80807,37.5267333 1030.33747,37.0778 1029.81487,36.6782667 C1029.7334,36.6158667 1029.6424,36.5578 1029.55573,36.4988667 C1028.99413,36.0958667 1028.39787,35.7284 1027.7392,35.4294 C1027.51907,35.3262667 1027.25647,35.4138 1027.14033,35.6261333 C1025.89407,37.8517333 1023.54193,39.2349333 1020.9974,39.2349333 C1018.4546,39.2349333 1016.10073,37.8517333 1014.851,35.6261333 C1014.79727,35.5299333 1014.7106,35.4718667 1014.61613,35.4328667 C1014.58927,35.4224667 1014.56673,35.419 1014.53987,35.4129333 C1014.50607,35.406 1014.47747,35.3878 1014.4454,35.3878 C1014.37953,35.3878 1014.31367,35.4016667 1014.25213,35.4302667 C1013.5952,35.7301333 1012.99807,36.0958667 1012.43733,36.498 C1012.34893,36.5586667 1012.25793,36.6167333 1012.17473,36.6808667 C1011.65127,37.0821333 1011.17807,37.5319333 1010.74647,38.0233333 C1010.7092,38.0675333 1010.65807,38.0978667 1010.61993,38.1438 C1009.51493,36.2839333 1008.93427,34.171 1008.93427,31.9956667 C1008.93253,25.3431333 1014.34573,19.9308 1020.99653,19.9308 L1020.99653,19.9308 Z M1020.99653,37.3963981 C1023.9874,37.3963981 1026.42013,35.2935205 1026.42013,32.7085307 L1026.42013,28.4241702 C1026.42013,25.8391804 1023.9874,23.7378 1020.99653,23.7378 C1018.00393,23.7378 1015.56947,25.8391804 1015.56947,28.4241702 L1015.56947,32.7085307 C1015.56947,35.2942691 1018.00393,37.3963981 1020.99653,37.3963981 L1020.99653,37.3963981 Z" id="User-round-2"></path>
        </g>
    </g>
</svg>