<?xml version="1.0" encoding="UTF-8"?>
<svg id="Layer_2" data-name="Layer 2" xmlns="http://www.w3.org/2000/svg" viewBox="0 0 394.75 57.76">
  <defs>
    <style>
      .cls-1 {
        letter-spacing: .02em;
      }

      .cls-1, .cls-2, .cls-3, .cls-4, .cls-5, .cls-6, .cls-7, .cls-8, .cls-9, .cls-10, .cls-11, .cls-12, .cls-13, .cls-14, .cls-15, .cls-16, .cls-17 {
        isolation: isolate;
      }

      .cls-1, .cls-2, .cls-3, .cls-4, .cls-7, .cls-8, .cls-9, .cls-10, .cls-11, .cls-13, .cls-14, .cls-15, .cls-16 {
        font-family: MarkerFelt-Wide, 'Marker Felt';
        font-size: 36.02px;
      }

      .cls-1, .cls-2, .cls-4, .cls-7, .cls-8, .cls-11, .cls-15 {
        fill: #69449b;
      }

      .cls-2, .cls-16 {
        letter-spacing: .04em;
      }

      .cls-3, .cls-5, .cls-6, .cls-18, .cls-9, .cls-10, .cls-13, .cls-14, .cls-16, .cls-17 {
        fill: #fbb040;
      }

      .cls-5 {
        font-size: 11.89px;
      }

      .cls-5, .cls-6 {
        font-family: ArialNarrow, 'Arial Narrow';
      }

      .cls-6 {
        font-size: 8.58px;
      }

      .cls-7 {
        letter-spacing: .05em;
      }

      .cls-19 {
        stroke: #231f20;
        stroke-miterlimit: 10;
        stroke-width: .3px;
      }

      .cls-19, .cls-20 {
        fill: #452e90;
      }

      .cls-8 {
        letter-spacing: -.02em;
      }

      .cls-9 {
        letter-spacing: -.1em;
      }

      .cls-10 {
        letter-spacing: .06em;
      }

      .cls-11 {
        letter-spacing: -.05em;
      }

      .cls-13 {
        letter-spacing: .03em;
      }

      .cls-14, .cls-15 {
        letter-spacing: .03em;
      }

      .cls-17 {
        font-family: Arial-BoldMT, Arial;
        font-size: 38.6px;
        font-weight: 700;
      }
    </style>
  </defs>
  <g id="Layer_2-2" data-name="Layer 2">
    <g>
      <g>
        <path class="cls-20" d="m70.58,46.91H16.64c-2.4,0-4.35-1.68-4.35-3.76L7.45,6.91c-.23-1.74,1.27-3.3,3.3-3.41L76.01,0c1.36,0,2.46.96,2.46,2.13v37.97c0,3.77-3.53,6.81-7.89,6.81Z"/>
        <path class="cls-19" d="m12.05,4.28h54.95v47.73c0,2.2-1.78,3.98-3.98,3.98H4.13c-2.2,0-3.98-1.78-3.98-3.98V8.26c0-2.2,1.78-3.98,3.98-3.98h7.92Z"/>
        <g class="cls-12">
          <text class="cls-5" transform="translate(67.02 51.96) rotate(-90) scale(1.7 1)"><tspan x="0" y="0">--------</tspan></text>
        </g>
        <g class="cls-12">
          <text class="cls-5" transform="translate(64.5 44.51) scale(1.7 1)"><tspan x="0" y="0">--</tspan></text>
        </g>
        <g class="cls-12">
          <text class="cls-5" transform="translate(77.69 40.6) rotate(-90) scale(1.7 1)"><tspan x="0" y="0">-------</tspan></text>
        </g>
        <g class="cls-12">
          <text class="cls-6" transform="translate(7.45 50.4) scale(2.36 -1)"><tspan x="0" y="0">----------</tspan></text>
        </g>
        <g>
          <g class="cls-12">
            <text class="cls-17" transform="translate(25.19 40.77) rotate(3.94)"><tspan x="0" y="0">B</tspan></text>
          </g>
          <rect class="cls-18" x="24.32" y="10.73" width="2.94" height="8.25" transform="translate(9.19 39.56) rotate(-86.06)"/>
          <rect class="cls-18" x="24.15" y="13.16" width="2.94" height="8.25" transform="translate(6.61 41.66) rotate(-86.06)"/>
          <rect class="cls-18" x="22.82" y="34.94" width="2.94" height="8.25" transform="translate(-16.36 60.61) rotate(-86.06)"/>
          <rect class="cls-18" x="22.99" y="32.64" width="2.94" height="8.25" transform="translate(-13.9 58.64) rotate(-86.06)"/>
          <rect class="cls-18" x="35.38" y="10.09" width="7.06" height="2.85" transform="translate(24.74 49.54) rotate(-86.06)"/>
          <rect class="cls-18" x="27.98" y="9.79" width="7.06" height="2.85" transform="translate(18.15 41.88) rotate(-86.06)"/>
          <rect class="cls-18" x="33.92" y="41.87" width="7.06" height="2.85" transform="translate(-8.31 77.68) rotate(-86.06)"/>
          <rect class="cls-18" x="25.97" y="41.56" width="7.06" height="2.85" transform="translate(-15.41 69.46) rotate(-86.06)"/>
        </g>
      </g>
      <g class="cls-12">
        <text class="cls-8" transform="translate(92.9 40.36)"><tspan x="0" y="0">B</tspan></text>
        <text class="cls-1" transform="translate(111.85 40.36)"><tspan x="0" y="0">t</tspan></text>
        <text class="cls-4" transform="translate(127.08 40.36)"><tspan x="0" y="0">c </tspan></text>
        <text class="cls-9" transform="translate(152.3 40.36)"><tspan x="0" y="0">T</tspan></text>
        <text class="cls-14" transform="translate(169.26 40.36)"><tspan x="0" y="0">r</tspan></text>
        <text class="cls-10" transform="translate(184.68 40.36)"><tspan x="0" y="0">a</tspan></text>
        <text class="cls-16" transform="translate(205.07 40.36)"><tspan x="0" y="0">n</tspan></text>
        <text class="cls-13" transform="translate(224.52 40.36)"><tspan x="0" y="0">s</tspan></text>
        <text class="cls-3" transform="translate(240.37 40.36)"><tspan x="0" y="0">f</tspan></text>
        <text class="cls-16" transform="translate(254.06 40.36)"><tspan x="0" y="0">e</tspan></text>
        <text class="cls-3" transform="translate(271.52 40.36)"><tspan x="0" y="0">r </tspan></text>
        <text class="cls-11" transform="translate(294.94 40.36)"><tspan x="0" y="0">W</tspan></text>
        <text class="cls-2" transform="translate(325.02 40.36)"><tspan x="0" y="0">a</tspan></text>
        <text class="cls-7" transform="translate(344.9 40.36)"><tspan x="0" y="0">l</tspan></text>
        <text class="cls-15" transform="translate(354.91 40.36)"><tspan x="0" y="0">l</tspan></text>
        <text class="cls-4" transform="translate(364.13 40.36)"><tspan x="0" y="0">et</tspan></text>
      </g>
    </g>
  </g>
</svg>